<svg width="173" height="24" viewBox="0 0 173 24" fill="none">
<g clip-path="url(#clip0_2001_10)">
<path fill-rule="evenodd" clip-rule="evenodd" d="M7.48544 1.22091C7.92658 0.779771 8.5127 0.537146 9.13623 0.536865C9.75939 0.537193 10.3459 0.779772 10.787 1.22096C11.2275 1.66172 11.47 2.24822 11.4704 2.87138V11.4848C11.2362 11.4211 10.996 11.3895 10.752 11.3895C10.4694 11.3895 10.1887 11.4323 9.9017 11.5224C9.56017 11.6408 9.22811 11.7011 8.91517 11.7011C8.37039 11.7004 7.89897 11.5217 7.55172 11.1842C7.24117 10.8811 7.06319 10.4665 7.06319 10.0476C7.06351 9.66802 7.19809 9.3144 7.46256 8.99677C7.64931 8.77266 7.61936 8.43854 7.39525 8.25108C7.30037 8.17172 7.17991 8.12794 7.05606 8.12794C6.89861 8.12794 6.75053 8.1969 6.64961 8.31807C6.22628 8.8238 6.00325 9.42174 6.00358 10.0472C6.00386 10.7508 6.29861 11.4413 6.8118 11.942C7.35151 12.4696 8.09683 12.7603 8.9148 12.7603C9.3445 12.7603 9.79098 12.6809 10.2338 12.5278C10.4031 12.4753 10.5774 12.4484 10.7516 12.4484C11 12.4487 11.2456 12.5033 11.4704 12.6068V15.8257H9.49389C9.20219 15.8257 8.96462 16.0633 8.96462 16.3553C8.96462 16.6474 9.20219 16.8846 9.49389 16.8846H11.4704V21.1287C11.4701 21.7518 11.2275 22.3383 10.787 22.7795C10.3459 23.2203 9.75939 23.4629 9.13623 23.4632C8.51275 23.4629 7.92658 23.2203 7.48544 22.7795C7.04462 22.338 6.80172 21.7518 6.80172 21.1287C6.80139 20.851 6.86397 20.5492 6.97736 20.279C7.10219 19.9813 7.28589 19.7262 7.50901 19.5405C7.73275 19.3533 7.7627 19.0189 7.57628 18.7948C7.47531 18.6736 7.32733 18.6043 7.16945 18.6043C7.04598 18.6043 6.92551 18.6481 6.83031 18.7275C6.47762 19.0215 6.19098 19.4162 6.00119 19.8691C5.8323 20.2719 5.74276 20.7069 5.74276 21.1286C5.74276 21.3924 5.77272 21.6535 5.83262 21.9079C5.58836 21.9913 5.32961 22.0351 5.07386 22.0351C4.50255 22.0347 3.95205 21.8251 3.52436 21.4448C3.02739 21.0021 2.74201 20.3661 2.74173 19.6999C2.74173 19.4176 2.79189 19.1413 2.8908 18.8778C2.99111 18.611 3.1398 18.3653 3.33161 18.149C3.42578 18.0434 3.47289 17.9074 3.46483 17.7664C3.45644 17.6248 3.39348 17.4952 3.28783 17.4014C3.19061 17.3149 3.06578 17.2678 2.93622 17.2678C2.78481 17.2678 2.64044 17.3324 2.53984 17.4458L2.50047 17.4905L2.47961 17.4932C2.44867 17.4966 2.41164 17.4969 2.33458 17.4969C1.71137 17.4966 1.12492 17.254 0.68378 16.8132C0.243014 16.3718 0.000436035 15.7856 6.10352e-05 15.1628C0.000436035 14.7267 0.121186 14.3017 0.348999 13.9339C0.57142 13.5759 0.886702 13.2839 1.26053 13.09C1.59465 12.9161 1.95606 12.8282 2.33458 12.8282C2.85981 12.8282 3.35481 12.9985 3.76764 13.3201C3.87798 13.441 4.20709 13.7819 4.68658 14.1213C5.03176 14.3653 5.38675 14.5605 5.74211 14.7018C6.19905 14.8835 6.65833 14.9756 7.10758 14.976C7.39961 14.976 7.63717 14.7384 7.63717 14.4464C7.63717 14.1543 7.39961 13.9168 7.10758 13.9168C6.79426 13.9168 6.46619 13.8498 6.13276 13.7176C5.64381 13.5234 5.23164 13.2229 4.97153 13.0049C4.85411 12.9063 4.7417 12.8033 4.63773 12.6983C4.60103 12.6613 4.57314 12.632 4.55495 12.6122L4.51487 12.5671L4.46237 12.5193C3.86308 12.0354 3.10769 11.769 2.33444 11.769C2.12209 11.769 1.90811 11.7895 1.6968 11.8298C1.23616 11.4076 0.961889 10.8174 0.939717 10.1918C0.939014 10.1636 0.938686 10.1353 0.938686 10.1074C0.938686 9.50171 1.17053 8.92702 1.5918 8.48958C2.01442 8.05116 2.58241 7.7978 3.19009 7.77591C3.21841 7.77526 3.24597 7.77493 3.27391 7.77493C3.39503 7.77493 3.5162 7.78402 3.6333 7.80249C3.66086 7.80652 3.68847 7.80858 3.71537 7.80858C3.97783 7.80858 4.19753 7.61982 4.23826 7.35971C4.2827 7.07133 4.08451 6.80049 3.79548 6.7554C3.6242 6.72882 3.44856 6.71569 3.27391 6.71569H3.26753C3.08247 6.37416 2.98525 5.99255 2.98525 5.60293C2.98558 5.02922 3.19586 4.47708 3.57845 4.0494C4.02058 3.55412 4.6555 3.2701 5.32009 3.26977C5.88367 3.26977 6.42714 3.47368 6.85276 3.84413C6.94633 3.94979 7.31008 4.35291 7.78548 4.77418C8.11019 5.06152 8.42078 5.29843 8.70845 5.47777C8.89187 5.59187 9.06147 5.68065 9.22769 5.74965C9.42756 5.83276 9.61262 5.88324 9.79366 5.90344L9.8522 5.90677C10.1221 5.90677 10.3481 5.70418 10.3781 5.43568C10.3939 5.29501 10.3539 5.15672 10.2654 5.04633C10.1773 4.93599 10.0511 4.86633 9.91009 4.85054C9.85628 4.84444 9.76478 4.82597 9.63353 4.77146C9.44444 4.69304 9.21597 4.55644 8.97203 4.37607C8.60425 4.10457 8.25733 3.77682 8.03087 3.54933C7.90572 3.42418 7.80344 3.31515 7.73312 3.23912L7.65541 3.15366L7.61669 3.10927L7.57933 3.07257C7.3495 2.8673 7.09548 2.69607 6.82258 2.56079C6.88984 2.05576 7.12136 1.58499 7.48544 1.22091ZM22.7396 13.0899C23.1138 13.2838 23.4287 13.5758 23.6511 13.9338C23.8789 14.3016 23.9998 14.7266 24.0001 15.1623C23.9997 15.7855 23.7571 16.3717 23.3163 16.8131C22.8751 17.2539 22.2886 17.4965 21.6655 17.4969C21.6241 17.4969 21.5941 17.4965 21.5726 17.4962C21.5481 17.4952 21.5377 17.4942 21.5212 17.4918L21.4969 17.4878L21.4602 17.4457C21.3596 17.3323 21.2153 17.2677 21.0638 17.2677C20.9343 17.2677 20.8095 17.3148 20.7119 17.4013C20.4942 17.5954 20.4743 17.9306 20.6682 18.149C20.8603 18.3653 21.0091 18.6106 21.1093 18.8775C21.2079 19.1409 21.2584 19.4175 21.2584 19.6998C21.2581 20.3664 20.9727 21.0023 20.4754 21.4448C20.0481 21.825 19.4975 22.0347 18.9262 22.035C18.6705 22.035 18.4118 21.9913 18.1674 21.9078C18.2273 21.6527 18.2576 21.3916 18.2573 21.1285C18.2573 20.7988 18.2007 20.4505 18.0931 20.1211C17.9093 19.5606 17.59 19.0784 17.1694 18.7268C16.9285 18.5262 16.6566 18.3704 16.3615 18.2644C16.0462 18.1507 15.703 18.0931 15.3413 18.0931C15.0492 18.0931 14.8117 18.3307 14.8117 18.6231C14.8117 18.9148 15.0492 19.1521 15.341 19.1521C15.6583 19.1528 15.9331 19.2133 16.1815 19.3371C16.5028 19.4986 16.7596 19.759 16.944 20.1121C17.1061 20.4206 17.1987 20.7911 17.1983 21.1286C17.1983 21.7517 16.9554 22.3379 16.5146 22.7794C16.0734 23.2202 15.4873 23.4628 14.8642 23.4631C14.2406 23.4628 13.6545 23.2202 13.213 22.7794C12.7726 22.3382 12.53 21.7517 12.5296 21.1286V11.4092C12.9708 11.4324 13.3584 11.4877 13.6851 11.5728C14.0236 11.661 14.2951 11.7784 14.5152 11.9318C14.6774 12.0452 14.8089 12.1764 14.918 12.3329C15.0788 12.5624 15.1936 12.8535 15.2905 13.2767C15.3231 13.4168 15.3515 13.5603 15.3802 13.7048L15.383 13.7192L15.3888 13.7486C15.4159 13.8857 15.4431 14.0239 15.4742 14.162C15.5395 14.4484 15.6058 14.6661 15.6896 14.868C15.7707 15.0635 15.8649 15.2341 15.978 15.3882C16.1717 15.655 16.4224 15.8717 16.7226 16.0312C17.0378 16.1994 17.4063 16.3091 17.8494 16.366L17.9181 16.3707C18.1829 16.3707 18.4087 16.1722 18.443 15.9084C18.4608 15.7684 18.4231 15.6291 18.3363 15.5167C18.2496 15.405 18.1247 15.3337 17.9854 15.3162C17.623 15.2691 17.3438 15.1802 17.1321 15.045C16.9834 14.9487 16.87 14.8323 16.7761 14.6775C16.7 14.5533 16.6361 14.4006 16.5799 14.2102C16.5196 14.0063 16.4739 13.7766 16.4256 13.5334L16.4235 13.5224C16.3949 13.3764 16.3652 13.2267 16.3313 13.0752C16.2693 12.802 16.1761 12.4433 16.0021 12.091C15.8682 11.8215 15.6987 11.5819 15.4978 11.379C15.1576 11.0355 14.7057 10.775 14.1556 10.6058C13.6943 10.4631 13.1606 10.3786 12.5297 10.349V7.73621H14.7047C14.9967 7.73621 15.2343 7.4986 15.2343 7.20657C15.2343 6.91487 14.9967 6.67697 14.7047 6.67697H12.5297V2.87133C12.53 2.24822 12.7726 1.66172 13.2134 1.22091C13.6545 0.779771 14.2406 0.537146 14.8642 0.536865C15.4874 0.537146 16.0735 0.779771 16.5146 1.22091C16.8787 1.58499 17.1102 2.05538 17.1775 2.56112C16.904 2.69635 16.6499 2.86801 16.4205 3.0729C16.3151 3.16712 16.2526 3.29668 16.2444 3.43801C16.2368 3.57901 16.2842 3.71494 16.378 3.82027C16.4783 3.93296 16.6223 3.99755 16.7734 3.99755C16.9036 3.99755 17.0288 3.94979 17.1261 3.86297C17.554 3.48071 18.1059 3.2701 18.6796 3.2701C19.3445 3.2701 19.9794 3.55444 20.4219 4.04972C20.7944 4.46766 20.9916 4.98347 20.9923 5.54204C20.9926 6.08279 20.8012 6.63226 20.4704 7.06932L20.4361 7.11174C20.3641 7.20427 20.2887 7.29038 20.2117 7.36847C20.0771 7.50436 19.8843 7.64536 19.6548 7.77558C19.3068 7.97344 18.9249 8.12049 18.6659 8.20899C18.5225 8.25741 18.4014 8.29407 18.3159 8.3183L18.2207 8.34422L18.287 8.60232L18.1907 8.35229L18.1803 8.35463C18.0471 8.38965 17.935 8.47308 17.8634 8.59116C17.7897 8.71163 17.7671 8.85366 17.8005 8.99157C17.8586 9.22983 18.0699 9.39605 18.3152 9.39605C18.357 9.39605 18.3987 9.39132 18.4377 9.3819C18.4418 9.38119 18.8469 9.28397 19.364 9.0804C19.6625 8.9626 19.9364 8.83341 20.178 8.69644C20.4986 8.51372 20.7557 8.32327 20.9643 8.11332C21.0158 8.06147 21.0656 8.00799 21.1134 7.9538C21.1784 7.95586 21.2436 7.96121 21.3082 7.96927C21.8402 8.03527 22.3277 8.29369 22.6814 8.69612C23.0323 9.09587 23.2255 9.60732 23.2255 10.1349C23.2255 10.2254 23.2198 10.317 23.2083 10.4078C23.137 10.9838 22.851 11.4916 22.3988 11.8496C22.1572 11.7958 21.9109 11.7689 21.6646 11.7689C20.8923 11.7689 20.1369 12.0353 19.5373 12.5192C19.4273 12.6083 19.3583 12.7345 19.3435 12.8755C19.3283 13.0162 19.3691 13.1542 19.4579 13.2642C19.5589 13.3894 19.7093 13.4611 19.8705 13.4611C19.9909 13.4611 20.1087 13.4193 20.2025 13.3436C20.6208 13.0065 21.1265 12.8281 21.6655 12.8281C21.8348 12.8281 22.0034 12.8463 22.1676 12.8823C22.2554 12.9433 22.3597 12.9762 22.4687 12.9762H22.4819C22.5741 13.0105 22.6605 13.0482 22.7396 13.0899Z" fill="#0070F3"/>
</g>
<path d="M32.77 12.3C32.77 10.7893 33.1073 9.44 33.782 8.252C34.4713 7.04933 35.4027 6.118 36.576 5.458C37.764 4.78333 39.0913 4.446 40.558 4.446C42.274 4.446 43.7773 4.886 45.068 5.766C46.3587 6.646 47.2607 7.86333 47.774 9.418H44.232C43.88 8.68467 43.3813 8.13467 42.736 7.768C42.1053 7.40133 41.372 7.218 40.536 7.218C39.6413 7.218 38.842 7.43067 38.138 7.856C37.4487 8.26667 36.906 8.85333 36.51 9.616C36.1287 10.3787 35.938 11.2733 35.938 12.3C35.938 13.312 36.1287 14.2067 36.51 14.984C36.906 15.7467 37.4487 16.3407 38.138 16.766C38.842 17.1767 39.6413 17.382 40.536 17.382C41.372 17.382 42.1053 17.1987 42.736 16.832C43.3813 16.4507 43.88 15.8933 44.232 15.16H47.774C47.2607 16.7293 46.3587 17.954 45.068 18.834C43.792 19.6993 42.2887 20.132 40.558 20.132C39.0913 20.132 37.764 19.802 36.576 19.142C35.4027 18.4673 34.4713 17.536 33.782 16.348C33.1073 15.16 32.77 13.8107 32.77 12.3ZM61.5147 13.642C61.5147 14.082 61.4854 14.478 61.4267 14.83H52.5167C52.5901 15.71 52.8981 16.3993 53.4407 16.898C53.9834 17.3967 54.6507 17.646 55.4427 17.646C56.5867 17.646 57.4007 17.1547 57.8847 16.172H61.2067C60.8547 17.3453 60.1801 18.3133 59.1827 19.076C58.1854 19.824 56.9607 20.198 55.5087 20.198C54.3354 20.198 53.2794 19.9413 52.3407 19.428C51.4167 18.9 50.6907 18.1593 50.1627 17.206C49.6494 16.2527 49.3927 15.1527 49.3927 13.906C49.3927 12.6447 49.6494 11.5373 50.1627 10.584C50.6761 9.63067 51.3947 8.89733 52.3187 8.384C53.2427 7.87067 54.3061 7.614 55.5087 7.614C56.6674 7.614 57.7014 7.86333 58.6107 8.362C59.5347 8.86067 60.2461 9.572 60.7447 10.496C61.2581 11.4053 61.5147 12.454 61.5147 13.642ZM58.3247 12.762C58.3101 11.97 58.0241 11.3393 57.4667 10.87C56.9094 10.386 56.2274 10.144 55.4207 10.144C54.6581 10.144 54.0127 10.3787 53.4847 10.848C52.9714 11.3027 52.6561 11.9407 52.5387 12.762H58.3247ZM66.6228 9.704C67.0188 9.05867 67.5322 8.55267 68.1628 8.186C68.8082 7.81933 69.5415 7.636 70.3628 7.636V10.87H69.5488C68.5808 10.87 67.8475 11.0973 67.3488 11.552C66.8648 12.0067 66.6228 12.7987 66.6228 13.928V20H63.5428V7.812H66.6228V9.704ZM83.5474 13.642C83.5474 14.082 83.518 14.478 83.4594 14.83H74.5494C74.6227 15.71 74.9307 16.3993 75.4734 16.898C76.016 17.3967 76.6834 17.646 77.4754 17.646C78.6194 17.646 79.4334 17.1547 79.9174 16.172H83.2394C82.8874 17.3453 82.2127 18.3133 81.2154 19.076C80.218 19.824 78.9934 20.198 77.5414 20.198C76.368 20.198 75.312 19.9413 74.3734 19.428C73.4494 18.9 72.7234 18.1593 72.1954 17.206C71.682 16.2527 71.4254 15.1527 71.4254 13.906C71.4254 12.6447 71.682 11.5373 72.1954 10.584C72.7087 9.63067 73.4274 8.89733 74.3514 8.384C75.2754 7.87067 76.3387 7.614 77.5414 7.614C78.7 7.614 79.734 7.86333 80.6434 8.362C81.5674 8.86067 82.2787 9.572 82.7774 10.496C83.2907 11.4053 83.5474 12.454 83.5474 13.642ZM80.3574 12.762C80.3427 11.97 80.0567 11.3393 79.4994 10.87C78.942 10.386 78.26 10.144 77.4534 10.144C76.6907 10.144 76.0454 10.3787 75.5174 10.848C75.004 11.3027 74.6887 11.9407 74.5714 12.762H80.3574ZM88.6555 9.594C89.0515 9.00733 89.5942 8.53067 90.2835 8.164C90.9875 7.79733 91.7868 7.614 92.6815 7.614C93.7228 7.614 94.6615 7.87067 95.4975 8.384C96.3482 8.89733 97.0155 9.63067 97.4995 10.584C97.9982 11.5227 98.2475 12.6153 98.2475 13.862C98.2475 15.1087 97.9982 16.216 97.4995 17.184C97.0155 18.1373 96.3482 18.878 95.4975 19.406C94.6615 19.934 93.7228 20.198 92.6815 20.198C91.7722 20.198 90.9728 20.022 90.2835 19.67C89.6088 19.3033 89.0662 18.834 88.6555 18.262V20H85.5755V3.72H88.6555V9.594ZM95.1015 13.862C95.1015 13.1287 94.9475 12.498 94.6395 11.97C94.3462 11.4273 93.9502 11.0167 93.4515 10.738C92.9675 10.4593 92.4395 10.32 91.8675 10.32C91.3102 10.32 90.7822 10.4667 90.2835 10.76C89.7995 11.0387 89.4035 11.4493 89.0955 11.992C88.8022 12.5347 88.6555 13.1727 88.6555 13.906C88.6555 14.6393 88.8022 15.2773 89.0955 15.82C89.4035 16.3627 89.7995 16.7807 90.2835 17.074C90.7822 17.3527 91.3102 17.492 91.8675 17.492C92.4395 17.492 92.9675 17.3453 93.4515 17.052C93.9502 16.7587 94.3462 16.3407 94.6395 15.798C94.9475 15.2553 95.1015 14.61 95.1015 13.862ZM103.346 9.704C103.742 9.05867 104.255 8.55267 104.886 8.186C105.531 7.81933 106.264 7.636 107.086 7.636V10.87H106.272C105.304 10.87 104.57 11.0973 104.072 11.552C103.588 12.0067 103.346 12.7987 103.346 13.928V20H100.266V7.812H103.346V9.704ZM120.446 7.812V20H117.344V18.46C116.948 18.988 116.428 19.406 115.782 19.714C115.152 20.0073 114.462 20.154 113.714 20.154C112.761 20.154 111.918 19.956 111.184 19.56C110.451 19.1493 109.872 18.5553 109.446 17.778C109.036 16.986 108.83 16.0473 108.83 14.962V7.812H111.91V14.522C111.91 15.49 112.152 16.238 112.636 16.766C113.12 17.2793 113.78 17.536 114.616 17.536C115.467 17.536 116.134 17.2793 116.618 16.766C117.102 16.238 117.344 15.49 117.344 14.522V7.812H120.446ZM138.401 7.636C139.897 7.636 141.1 8.098 142.009 9.022C142.933 9.93133 143.395 11.2073 143.395 12.85V20H140.315V13.268C140.315 12.3147 140.073 11.5887 139.589 11.09C139.105 10.5767 138.445 10.32 137.609 10.32C136.773 10.32 136.106 10.5767 135.607 11.09C135.123 11.5887 134.881 12.3147 134.881 13.268V20H131.801V13.268C131.801 12.3147 131.559 11.5887 131.075 11.09C130.591 10.5767 129.931 10.32 129.095 10.32C128.244 10.32 127.57 10.5767 127.071 11.09C126.587 11.5887 126.345 12.3147 126.345 13.268V20H123.265V7.812H126.345V9.286C126.741 8.77267 127.247 8.36933 127.863 8.076C128.494 7.78267 129.183 7.636 129.931 7.636C130.884 7.636 131.735 7.84133 132.483 8.252C133.231 8.648 133.81 9.22 134.221 9.968C134.617 9.264 135.189 8.69933 135.937 8.274C136.7 7.84867 137.521 7.636 138.401 7.636ZM154.2 4.644V20H151.12V4.644H154.2ZM168.463 22.706L166.131 19.912C165.486 20.0733 164.826 20.154 164.151 20.154C162.714 20.154 161.394 19.8167 160.191 19.142C158.988 18.4673 158.035 17.536 157.331 16.348C156.627 15.1453 156.275 13.7887 156.275 12.278C156.275 10.782 156.627 9.44 157.331 8.252C158.035 7.04933 158.988 6.11067 160.191 5.436C161.394 4.76133 162.714 4.424 164.151 4.424C165.603 4.424 166.923 4.76133 168.111 5.436C169.314 6.11067 170.26 7.04933 170.949 8.252C171.653 9.44 172.005 10.782 172.005 12.278C172.005 13.642 171.712 14.8887 171.125 16.018C170.553 17.1327 169.768 18.042 168.771 18.746L172.291 22.706H168.463ZM159.443 12.278C159.443 13.3047 159.641 14.2067 160.037 14.984C160.433 15.7613 160.983 16.3627 161.687 16.788C162.406 17.1987 163.227 17.404 164.151 17.404C165.075 17.404 165.889 17.1987 166.593 16.788C167.297 16.3627 167.847 15.7613 168.243 14.984C168.639 14.2067 168.837 13.3047 168.837 12.278C168.837 11.2513 168.639 10.3567 168.243 9.594C167.847 8.81667 167.297 8.22267 166.593 7.812C165.889 7.40133 165.075 7.196 164.151 7.196C163.227 7.196 162.406 7.40133 161.687 7.812C160.983 8.22267 160.433 8.81667 160.037 9.594C159.641 10.3567 159.443 11.2513 159.443 12.278Z" fill="#0070F3"/>
<defs>
<clipPath id="clip0_2001_10">
<rect width="24" height="24" fill="white"/>
</clipPath>
</defs>
</svg>
