<svg width="15" height="14" viewBox="0 0 15 14" fill="none" xmlns="http://www.w3.org/2000/svg">
<path d="M7.76367 0C6.11867 0 4.59617 0.5775 3.38867 1.54C1.77867 2.8175 0.763672 4.795 0.763672 7C0.763672 10.8675 3.89617 14 7.76367 14C9.53117 14 11.1412 13.335 12.3837 12.25C13.8362 10.9725 14.7637 9.1 14.7637 7C14.7637 3.1325 11.6312 0 7.76367 0ZM9.51367 7.4375C9.51367 7.8925 9.26867 8.33 8.88367 8.5575L6.69617 9.87C6.48617 10.01 6.24117 10.0625 6.01367 10.0625C5.57617 10.0625 5.13867 9.835 4.89367 9.4325C4.52617 8.8025 4.71867 7.9975 5.34867 7.63L6.90617 6.7025V4.8125C6.90617 4.095 7.50117 3.5 8.21867 3.5C8.93617 3.5 9.51367 4.095 9.51367 4.8125V7.4375Z" fill="#0070F3"/>
</svg>
